{
    "asset" : {
        "copyright" : "Amon De Shir",
        "generator" : "Khronos glTF Blender I/O v1.8.19",
        "version" : "2.0"
    },
    "scene" : 0,
    "scenes" : [
        {
            "name" : "Scene",
            "nodes" : [
                0,
                1,
                2,
                3,
                4,
                5,
                6
            ]
        }
    ],
    "nodes" : [
        {
            "mesh" : 0,
            "name" : "front",
            "rotation" : [
                0,
                0,
                -0.7071067690849304,
                0.7071068286895752
            ],
            "scale" : [
                1,
                0.34742772579193115,
                1
            ]
        },
        {
            "mesh" : 1,
            "name" : "gun",
            "scale" : [
                0.19303862750530243,
                0.12746097147464752,
                0.19303862750530243
            ],
            "translation" : [
                -0.45386379957199097,
                2.040665626525879,
                -0.23538266122341156
            ]
        },
        {
            "mesh" : 2,
            "name" : "back",
            "scale" : [
                0.1145620346069336,
                0.1145620346069336,
                0.1145620346069336
            ]
        },
        {
            "mesh" : 3,
            "name" : "wheel.fl",
            "rotation" : [
                0,
                0,
                -0.7071067690849304,
                0.7071068286895752
            ],
            "scale" : [
                1,
                0.34742772579193115,
                1
            ],
            "translation" : [
                1.370270013809204,
                -0.973727822303772,
                2.2186262607574463
            ]
        },
        {
            "mesh" : 4,
            "name" : "wheel.fr",
            "rotation" : [
                0,
                0,
                -0.7071067690849304,
                0.7071068286895752
            ],
            "scale" : [
                1,
                0.34742772579193115,
                1
            ],
            "translation" : [
                -1.370269775390625,
                -0.9737280607223511,
                2.218626022338867
            ]
        },
        {
            "mesh" : 5,
            "name" : "wheel.bl",
            "rotation" : [
                0,
                0,
                -0.7071067690849304,
                0.7071068286895752
            ],
            "scale" : [
                1,
                0.34742772579193115,
                1
            ],
            "translation" : [
                1.6590943336486816,
                -0.9737275242805481,
                -4.615383625030518
            ]
        },
        {
            "mesh" : 6,
            "name" : "wheel.br",
            "rotation" : [
                0,
                0,
                -0.7071067690849304,
                0.7071068286895752
            ],
            "scale" : [
                1,
                0.34742772579193115,
                1
            ],
            "translation" : [
                -1.6590940952301025,
                -0.9737277626991272,
                -4.615384101867676
            ]
        }
    ],
    "materials" : [
        {
            "doubleSided" : true,
            "name" : "Material",
            "pbrMetallicRoughness" : {
                "baseColorTexture" : {
                    "index" : 0
                },
                "metallicFactor" : 0,
                "roughnessFactor" : 0.4000000059604645
            }
        }
    ],
    "meshes" : [
        {
            "name" : "Cylinder.003",
            "primitives" : [
                {
                    "attributes" : {
                        "POSITION" : 0,
                        "NORMAL" : 1,
                        "TEXCOORD_0" : 2
                    },
                    "indices" : 3,
                    "material" : 0
                }
            ]
        },
        {
            "name" : "Cylinder.004",
            "primitives" : [
                {
                    "attributes" : {
                        "POSITION" : 4,
                        "NORMAL" : 5,
                        "TEXCOORD_0" : 6
                    },
                    "indices" : 7,
                    "material" : 0
                }
            ]
        },
        {
            "name" : "Cube.009",
            "primitives" : [
                {
                    "attributes" : {
                        "POSITION" : 8,
                        "NORMAL" : 9,
                        "TEXCOORD_0" : 10
                    },
                    "indices" : 11,
                    "material" : 0
                }
            ]
        },
        {
            "name" : "Cylinder.011",
            "primitives" : [
                {
                    "attributes" : {
                        "POSITION" : 12,
                        "NORMAL" : 13,
                        "TEXCOORD_0" : 14
                    },
                    "indices" : 15,
                    "material" : 0
                }
            ]
        },
        {
            "name" : "Cylinder.012",
            "primitives" : [
                {
                    "attributes" : {
                        "POSITION" : 16,
                        "NORMAL" : 17,
                        "TEXCOORD_0" : 18
                    },
                    "indices" : 19,
                    "material" : 0
                }
            ]
        },
        {
            "name" : "Cylinder.013",
            "primitives" : [
                {
                    "attributes" : {
                        "POSITION" : 20,
                        "NORMAL" : 21,
                        "TEXCOORD_0" : 22
                    },
                    "indices" : 23,
                    "material" : 0
                }
            ]
        },
        {
            "name" : "Cylinder.014",
            "primitives" : [
                {
                    "attributes" : {
                        "POSITION" : 24,
                        "NORMAL" : 25,
                        "TEXCOORD_0" : 26
                    },
                    "indices" : 27,
                    "material" : 0
                }
            ]
        }
    ],
    "textures" : [
        {
            "sampler" : 0,
            "source" : 0
        }
    ],
    "images" : [
        {
            "bufferView" : 4,
            "mimeType" : "image/png",
            "name" : "colors-gradient"
        }
    ],
    "accessors" : [
        {
            "bufferView" : 0,
            "componentType" : 5126,
            "count" : 1986,
            "max" : [
                1.2050124406814575,
                4.923107624053955,
                4.148835182189941
            ],
            "min" : [
                -2.070754289627075,
                -5.275143146514893,
                -1.2606697082519531
            ],
            "type" : "VEC3"
        },
        {
            "bufferView" : 1,
            "componentType" : 5126,
            "count" : 1986,
            "type" : "VEC3"
        },
        {
            "bufferView" : 2,
            "componentType" : 5126,
            "count" : 1986,
            "type" : "VEC2"
        },
        {
            "bufferView" : 3,
            "componentType" : 5123,
            "count" : 3186,
            "type" : "SCALAR"
        },
        {
            "bufferView" : 5,
            "componentType" : 5126,
            "count" : 378,
            "max" : [
                2.4850871562957764,
                3.6501004695892334,
                4.534029483795166
            ],
            "min" : [
                -2.4850871562957764,
                0.22943568229675293,
                -2.4850871562957764
            ],
            "type" : "VEC3"
        },
        {
            "bufferView" : 6,
            "componentType" : 5126,
            "count" : 378,
            "type" : "VEC3"
        },
        {
            "bufferView" : 7,
            "componentType" : 5126,
            "count" : 378,
            "type" : "VEC2"
        },
        {
            "bufferView" : 8,
            "componentType" : 5123,
            "count" : 624,
            "type" : "SCALAR"
        },
        {
            "bufferView" : 9,
            "componentType" : 5126,
            "count" : 4181,
            "max" : [
                12.147879600524902,
                20.436126708984375,
                -10.465484619140625
            ],
            "min" : [
                -17.465341567993164,
                -11.861419677734375,
                -69.9142074584961
            ],
            "type" : "VEC3"
        },
        {
            "bufferView" : 10,
            "componentType" : 5126,
            "count" : 4181,
            "type" : "VEC3"
        },
        {
            "bufferView" : 11,
            "componentType" : 5126,
            "count" : 4181,
            "type" : "VEC2"
        },
        {
            "bufferView" : 12,
            "componentType" : 5123,
            "count" : 6792,
            "type" : "SCALAR"
        },
        {
            "bufferView" : 13,
            "componentType" : 5126,
            "count" : 342,
            "max" : [
                0.9997626543045044,
                0.8069756031036377,
                0.999762773513794
            ],
            "min" : [
                -0.9997633099555969,
                -0.8528134822845459,
                -0.999763011932373
            ],
            "type" : "VEC3"
        },
        {
            "bufferView" : 14,
            "componentType" : 5126,
            "count" : 342,
            "type" : "VEC3"
        },
        {
            "bufferView" : 15,
            "componentType" : 5126,
            "count" : 342,
            "type" : "VEC2"
        },
        {
            "bufferView" : 16,
            "componentType" : 5123,
            "count" : 564,
            "type" : "SCALAR"
        },
        {
            "bufferView" : 17,
            "componentType" : 5126,
            "count" : 338,
            "max" : [
                0.9997626543045044,
                0.8528134822845459,
                0.999763011932373
            ],
            "min" : [
                -0.9997633099555969,
                -0.8069756031036377,
                -0.999762773513794
            ],
            "type" : "VEC3"
        },
        {
            "bufferView" : 18,
            "componentType" : 5126,
            "count" : 338,
            "type" : "VEC3"
        },
        {
            "bufferView" : 19,
            "componentType" : 5126,
            "count" : 338,
            "type" : "VEC2"
        },
        {
            "bufferView" : 20,
            "componentType" : 5123,
            "count" : 564,
            "type" : "SCALAR"
        },
        {
            "bufferView" : 21,
            "componentType" : 5126,
            "count" : 680,
            "max" : [
                0.9997629523277283,
                1.6382932662963867,
                0.9997625350952148
            ],
            "min" : [
                -0.999763011932373,
                -1.6841354370117188,
                -0.9997632503509521
            ],
            "type" : "VEC3"
        },
        {
            "bufferView" : 22,
            "componentType" : 5126,
            "count" : 680,
            "type" : "VEC3"
        },
        {
            "bufferView" : 23,
            "componentType" : 5126,
            "count" : 680,
            "type" : "VEC2"
        },
        {
            "bufferView" : 24,
            "componentType" : 5123,
            "count" : 1128,
            "type" : "SCALAR"
        },
        {
            "bufferView" : 25,
            "componentType" : 5126,
            "count" : 682,
            "max" : [
                0.9997629523277283,
                1.6841354370117188,
                0.999762773513794
            ],
            "min" : [
                -0.999763011932373,
                -1.6382932662963867,
                -0.999763011932373
            ],
            "type" : "VEC3"
        },
        {
            "bufferView" : 26,
            "componentType" : 5126,
            "count" : 682,
            "type" : "VEC3"
        },
        {
            "bufferView" : 27,
            "componentType" : 5126,
            "count" : 682,
            "type" : "VEC2"
        },
        {
            "bufferView" : 28,
            "componentType" : 5123,
            "count" : 1128,
            "type" : "SCALAR"
        }
    ],
    "bufferViews" : [
        {
            "buffer" : 0,
            "byteLength" : 23832,
            "byteOffset" : 0
        },
        {
            "buffer" : 0,
            "byteLength" : 23832,
            "byteOffset" : 23832
        },
        {
            "buffer" : 0,
            "byteLength" : 15888,
            "byteOffset" : 47664
        },
        {
            "buffer" : 0,
            "byteLength" : 6372,
            "byteOffset" : 63552
        },
        {
            "buffer" : 0,
            "byteLength" : 17354,
            "byteOffset" : 69924
        },
        {
            "buffer" : 0,
            "byteLength" : 4536,
            "byteOffset" : 87280
        },
        {
            "buffer" : 0,
            "byteLength" : 4536,
            "byteOffset" : 91816
        },
        {
            "buffer" : 0,
            "byteLength" : 3024,
            "byteOffset" : 96352
        },
        {
            "buffer" : 0,
            "byteLength" : 1248,
            "byteOffset" : 99376
        },
        {
            "buffer" : 0,
            "byteLength" : 50172,
            "byteOffset" : 100624
        },
        {
            "buffer" : 0,
            "byteLength" : 50172,
            "byteOffset" : 150796
        },
        {
            "buffer" : 0,
            "byteLength" : 33448,
            "byteOffset" : 200968
        },
        {
            "buffer" : 0,
            "byteLength" : 13584,
            "byteOffset" : 234416
        },
        {
            "buffer" : 0,
            "byteLength" : 4104,
            "byteOffset" : 248000
        },
        {
            "buffer" : 0,
            "byteLength" : 4104,
            "byteOffset" : 252104
        },
        {
            "buffer" : 0,
            "byteLength" : 2736,
            "byteOffset" : 256208
        },
        {
            "buffer" : 0,
            "byteLength" : 1128,
            "byteOffset" : 258944
        },
        {
            "buffer" : 0,
            "byteLength" : 4056,
            "byteOffset" : 260072
        },
        {
            "buffer" : 0,
            "byteLength" : 4056,
            "byteOffset" : 264128
        },
        {
            "buffer" : 0,
            "byteLength" : 2704,
            "byteOffset" : 268184
        },
        {
            "buffer" : 0,
            "byteLength" : 1128,
            "byteOffset" : 270888
        },
        {
            "buffer" : 0,
            "byteLength" : 8160,
            "byteOffset" : 272016
        },
        {
            "buffer" : 0,
            "byteLength" : 8160,
            "byteOffset" : 280176
        },
        {
            "buffer" : 0,
            "byteLength" : 5440,
            "byteOffset" : 288336
        },
        {
            "buffer" : 0,
            "byteLength" : 2256,
            "byteOffset" : 293776
        },
        {
            "buffer" : 0,
            "byteLength" : 8184,
            "byteOffset" : 296032
        },
        {
            "buffer" : 0,
            "byteLength" : 8184,
            "byteOffset" : 304216
        },
        {
            "buffer" : 0,
            "byteLength" : 5456,
            "byteOffset" : 312400
        },
        {
            "buffer" : 0,
            "byteLength" : 2256,
            "byteOffset" : 317856
        }
    ],
    "samplers" : [
        {
            "magFilter" : 9728,
            "minFilter" : 9984
        }
    ],
    "buffers" : [
        {
            "byteLength" : 320112,
            "uri" : "data:application/octet-stream;base64,"
        }
    ]
}
